{"asset":{"generator":"Modov11.2","version":"2.0"},"scene":0,"scenes":[{"nodes":[0,1,2,3,4,5,6,7,8,9,10,11,12,13,14,15,16,17,18,19]}],"nodes":[{"name":"FLOOR","mesh":0},{"name":"WALL SCREEN","matrix":[1.0,0.0,0.0,0.0,0.0,0.75,0.0,0.0,0.0,0.0,1.0,0.0,0.0,0.0,0.0,1.0],"mesh":1},{"name":"WALL WINDOW","matrix":[-1.0,1.2246468525851679e-16,8.742277657347586e-8,0.0,9.184852056133249e-17,0.75,9.184850732644269e-17,0.0,-8.742277657347586e-8,1.2246468525851679e-16,-1.0,0.0,0.0,0.0,0.0,1.0],"mesh":2},{"name":"WALL SHELVING","matrix":[1.1924880638503055e-8,0.0,1.0,0.0,0.0,0.75,0.0,0.0,-1.0,0.0,1.1924880638503055e-8,0.0,0.0,0.0,0.0,1.0],"mesh":3},{"name":"WALL DOOR","mesh":4},{"name":"ROOF (2)","mesh":5},{"name":"SOFA","mesh":6},{"name":"DESK","matrix":[1.0,0.0,0.0,0.0,0.0,1.0,0.0,0.0,0.0,0.0,1.0,0.0,-2.119999647140503,0.0,4.110000133514404,1.0],"mesh":7},{"name":"SHELF","matrix":[1.0,0.0,0.0,0.0,0.0,1.0,0.0,0.0,0.0,0.0,1.0,0.0,-2.119999647140503,0.3199999928474426,4.110000133514404,1.0],"mesh":8},{"name":"LAMPS","mesh":9},{"name":"PLANT1","matrix":[0.800000011920929,0.0,0.0,0.0,0.0,1.0,0.0,0.0,0.0,0.0,0.800000011920929,0.0,1.940000057220459,0.0,4.0,1.0],"mesh":10},{"name":"PLANT2","matrix":[0.7372773289680481,0.0,-0.6755901575088501,0.0,0.0,1.0,0.0,0.0,0.6755901575088501,0.0,0.7372773289680481,0.0,-4.03000020980835,3.569999933242798,-3.2699999809265138,1.0],"mesh":11},{"name":"DESK (2)","matrix":[1.0,0.0,0.0,0.0,0.0,1.0,0.0,0.0,0.0,0.0,1.0,0.0,-2.119999647140503,0.0,4.110000133514404,1.0],"mesh":12},{"name":"PILLOWS","mesh":13},{"name":"SIDE TABLE","matrix":[0.8999999761581421,0.0,0.0,0.0,0.0,0.8999999761581421,0.0,0.0,0.0,0.0,0.8999999761581421,0.0,-3.6850435733795168,-1.0997912883758546,-2.4520206451416017,1.0],"mesh":14},{"name":"CHAIR","matrix":[0.6399999856948853,0.0,0.0,0.0,0.0,0.1927083283662796,0.0,0.0,0.0,0.0,0.6399999856948853,0.0,0.0,0.8349999785423279,0.0,1.0],"mesh":15},{"name":"BOOK","mesh":16},{"name":"BOOKS","mesh":17},{"name":"PLANT3","mesh":18},{"name":"Camera","matrix":[0.9543903470039368,-6.991083210295037e-18,-0.2985617518424988,0.0,-0.03641320765018463,0.9925347566604614,-0.11639941483736038,0.0,0.2963329255580902,0.1219620630145073,0.9472655653953552,0.0,1.451183557510376,3.47285795211792,4.638891696929932,1.0],"camera":0}],"meshes":[{"primitives":[{"indices":1,"mode":4,"material":1,"attributes":{"POSITION":0,"NORMAL":2,"TEXCOORD_0":3}}]},{"primitives":[{"indices":5,"mode":4,"material":2,"attributes":{"POSITION":4,"NORMAL":6,"TEXCOORD_0":7}},{"indices":9,"mode":4,"material":1,"attributes":{"POSITION":8,"NORMAL":10,"TEXCOORD_0":11}}]},{"primitives":[{"indices":13,"mode":4,"material":1,"attributes":{"POSITION":12,"NORMAL":14,"TEXCOORD_0":15}}]},{"primitives":[{"indices":17,"mode":4,"material":1,"attributes":{"POSITION":16,"NORMAL":18,"TEXCOORD_0":19}}]},{"primitives":[{"indices":21,"mode":4,"material":1,"attributes":{"POSITION":20,"NORMAL":22,"TEXCOORD_0":23}}]},{"primitives":[{"indices":25,"mode":4,"material":1,"attributes":{"POSITION":24,"NORMAL":26,"TEXCOORD_0":27}}]},{"primitives":[{"indices":29,"mode":4,"material":2,"attributes":{"POSITION":28,"NORMAL":30,"TEXCOORD_0":31}}]},{"primitives":[{"indices":33,"mode":4,"material":2,"attributes":{"POSITION":32,"NORMAL":34,"TEXCOORD_0":35}}]},{"primitives":[{"indices":37,"mode":4,"material":2,"attributes":{"POSITION":36,"NORMAL":38,"TEXCOORD_0":39}}]},{"primitives":[{"indices":41,"mode":4,"material":2,"attributes":{"POSITION":40,"NORMAL":42,"TEXCOORD_0":43}}]},{"primitives":[{"indices":45,"mode":4,"material":2,"attributes":{"POSITION":44,"NORMAL":46,"TEXCOORD_0":47}}]},{"primitives":[{"indices":49,"mode":4,"material":2,"attributes":{"POSITION":48,"NORMAL":50,"TEXCOORD_0":51}}]},{"primitives":[{"indices":53,"mode":4,"material":2,"attributes":{"POSITION":52,"NORMAL":54,"TEXCOORD_0":55}}]},{"primitives":[{"indices":57,"mode":4,"material":2,"attributes":{"POSITION":56,"NORMAL":58,"TEXCOORD_0":59}}]},{"primitives":[{"indices":61,"mode":4,"material":2,"attributes":{"POSITION":60,"NORMAL":62,"TEXCOORD_0":63}}]},{"primitives":[{"indices":65,"mode":4,"material":2,"attributes":{"POSITION":64,"NORMAL":66,"TEXCOORD_0":67}}]},{"primitives":[{"indices":69,"mode":4,"material":2,"attributes":{"POSITION":68,"NORMAL":70,"TEXCOORD_0":71}}]},{"primitives":[{"indices":73,"mode":4,"material":2,"attributes":{"POSITION":72,"NORMAL":74,"TEXCOORD_0":75}}]},{"primitives":[{"indices":77,"mode":4,"material":2,"attributes":{"POSITION":76,"NORMAL":78,"TEXCOORD_0":79}}]}],"buffers":[{"byteLength":325976,"uri":"ROOM 1.bin"}],"bufferViews":[{"buffer":0,"byteLength":1368},{"buffer":0,"byteLength":912,"byteOffset":1368},{"buffer":0,"byteLength":1368,"byteOffset":2280},{"buffer":0,"byteLength":912,"byteOffset":3648},{"buffer":0,"byteLength":480,"byteOffset":4560},{"buffer":0,"byteLength":336,"byteOffset":5040},{"buffer":0,"byteLength":480,"byteOffset":5376},{"buffer":0,"byteLength":320,"byteOffset":5856},{"buffer":0,"byteLength":1008,"byteOffset":6176},{"buffer":0,"byteLength":672,"byteOffset":7184},{"buffer":0,"byteLength":1008,"byteOffset":7856},{"buffer":0,"byteLength":672,"byteOffset":8864},{"buffer":0,"byteLength":2160,"byteOffset":9536},{"buffer":0,"byteLength":1392,"byteOffset":11696},{"buffer":0,"byteLength":2160,"byteOffset":13088},{"buffer":0,"byteLength":1440,"byteOffset":15248},{"buffer":0,"byteLength":1296,"byteOffset":16688},{"buffer":0,"byteLength":1008,"byteOffset":17984},{"buffer":0,"byteLength":1296,"byteOffset":18992},{"buffer":0,"byteLength":864,"byteOffset":20288},{"buffer":0,"byteLength":3600,"byteOffset":21152},{"buffer":0,"byteLength":2328,"byteOffset":24752},{"buffer":0,"byteLength":3600,"byteOffset":27080},{"buffer":0,"byteLength":2400,"byteOffset":30680},{"buffer":0,"byteLength":1296,"byteOffset":33080},{"buffer":0,"byteLength":720,"byteOffset":34376},{"buffer":0,"byteLength":1296,"byteOffset":35096},{"buffer":0,"byteLength":864,"byteOffset":36392},{"buffer":0,"byteLength":4764,"byteOffset":37256},{"buffer":0,"byteLength":4104,"byteOffset":42020},{"buffer":0,"byteLength":4764,"byteOffset":46124},{"buffer":0,"byteLength":3176,"byteOffset":50888},{"buffer":0,"byteLength":672,"byteOffset":54064},{"buffer":0,"byteLength":528,"byteOffset":54736},{"buffer":0,"byteLength":672,"byteOffset":55264},{"buffer":0,"byteLength":448,"byteOffset":55936},{"buffer":0,"byteLength":1872,"byteOffset":56384},{"buffer":0,"byteLength":1632,"byteOffset":58256},{"buffer":0,"byteLength":1872,"byteOffset":59888},{"buffer":0,"byteLength":1248,"byteOffset":61760},{"buffer":0,"byteLength":8736,"byteOffset":63008},{"buffer":0,"byteLength":6336,"byteOffset":71744},{"buffer":0,"byteLength":8736,"byteOffset":78080},{"buffer":0,"byteLength":5824,"byteOffset":86816},{"buffer":0,"byteLength":4320,"byteOffset":92640},{"buffer":0,"byteLength":3984,"byteOffset":96960},{"buffer":0,"byteLength":4320,"byteOffset":100944},{"buffer":0,"byteLength":2880,"byteOffset":105264},{"buffer":0,"byteLength":19536,"byteOffset":108144},{"buffer":0,"byteLength":13368,"byteOffset":127680},{"buffer":0,"byteLength":19536,"byteOffset":141048},{"buffer":0,"byteLength":13024,"byteOffset":160584},{"buffer":0,"byteLength":1056,"byteOffset":173608},{"buffer":0,"byteLength":912,"byteOffset":174664},{"buffer":0,"byteLength":1056,"byteOffset":175576},{"buffer":0,"byteLength":704,"byteOffset":176632},{"buffer":0,"byteLength":1788,"byteOffset":177336},{"buffer":0,"byteLength":1632,"byteOffset":179124},{"buffer":0,"byteLength":1788,"byteOffset":180756},{"buffer":0,"byteLength":1192,"byteOffset":182544},{"buffer":0,"byteLength":16800,"byteOffset":183736},{"buffer":0,"byteLength":17712,"byteOffset":200536},{"buffer":0,"byteLength":16800,"byteOffset":218248},{"buffer":0,"byteLength":11200,"byteOffset":235048},{"buffer":0,"byteLength":4344,"byteOffset":246248},{"buffer":0,"byteLength":3648,"byteOffset":250592},{"buffer":0,"byteLength":4344,"byteOffset":254240},{"buffer":0,"byteLength":2896,"byteOffset":258584},{"buffer":0,"byteLength":768,"byteOffset":261480},{"buffer":0,"byteLength":624,"byteOffset":262248},{"buffer":0,"byteLength":768,"byteOffset":262872},{"buffer":0,"byteLength":512,"byteOffset":263640},{"buffer":0,"byteLength":14736,"byteOffset":264152},{"buffer":0,"byteLength":14352,"byteOffset":278888},{"buffer":0,"byteLength":14736,"byteOffset":293240},{"buffer":0,"byteLength":9824,"byteOffset":307976},{"buffer":0,"byteLength":2328,"byteOffset":317800},{"buffer":0,"byteLength":1968,"byteOffset":320128},{"buffer":0,"byteLength":2328,"byteOffset":322096},{"buffer":0,"byteLength":1552,"byteOffset":324424}],"accessors":[{"bufferView":0,"type":"VEC3","componentType":5126,"count":114,"min":[-5.070000171661377,-0.20000000298023225,-7.770000457763672],"max":[5.070000171661377,0.029999999329447748,5.0]},{"bufferView":1,"type":"SCALAR","componentType":5125,"count":228},{"bufferView":2,"type":"VEC3","componentType":5126,"count":114},{"bufferView":3,"type":"VEC2","componentType":5126,"count":114},{"bufferView":4,"type":"VEC3","componentType":5126,"count":40,"min":[-2.401986837387085,2.7666804790496828,5.0],"max":[2.312797784805298,4.6061835289001469,5.199999809265137]},{"bufferView":5,"type":"SCALAR","componentType":5125,"count":84},{"bufferView":6,"type":"VEC3","componentType":5126,"count":40},{"bufferView":7,"type":"VEC2","componentType":5126,"count":40},{"bufferView":8,"type":"VEC3","componentType":5126,"count":84,"min":[-5.0,0.0,2.999999761581421],"max":[5.0,5.971185207366943,5.199999809265137]},{"bufferView":9,"type":"SCALAR","componentType":5125,"count":168},{"bufferView":10,"type":"VEC3","componentType":5126,"count":84},{"bufferView":11,"type":"VEC2","componentType":5126,"count":84},{"bufferView":12,"type":"VEC3","componentType":5126,"count":180,"min":[-5.0,-0.1599999964237213,5.0],"max":[5.0,5.971185207366943,5.199999809265137]},{"bufferView":13,"type":"SCALAR","componentType":5125,"count":348},{"bufferView":14,"type":"VEC3","componentType":5126,"count":180},{"bufferView":15,"type":"VEC2","componentType":5126,"count":180},{"bufferView":16,"type":"VEC3","componentType":5126,"count":108,"min":[-5.0,0.0,4.945000171661377],"max":[5.0,5.971185207366943,5.199999809265137]},{"bufferView":17,"type":"SCALAR","componentType":5125,"count":252},{"bufferView":18,"type":"VEC3","componentType":5126,"count":108},{"bufferView":19,"type":"VEC2","componentType":5126,"count":108},{"bufferView":20,"type":"VEC3","componentType":5126,"count":300,"min":[4.999999523162842,0.0,-5.000000476837158],"max":[8.661999702453614,4.478388786315918,5.0]},{"bufferView":21,"type":"SCALAR","componentType":5125,"count":582},{"bufferView":22,"type":"VEC3","componentType":5126,"count":300},{"bufferView":23,"type":"VEC2","componentType":5126,"count":300},{"bufferView":24,"type":"VEC3","componentType":5126,"count":108,"min":[-5.0,-0.11999999731779099,-7.700000286102295],"max":[5.0,4.678389072418213,4.999999523162842]},{"bufferView":25,"type":"SCALAR","componentType":5125,"count":180},{"bufferView":26,"type":"VEC3","componentType":5126,"count":108},{"bufferView":27,"type":"VEC2","componentType":5126,"count":108},{"bufferView":28,"type":"VEC3","componentType":5126,"count":397,"min":[-4.972784519195557,0.0,-1.3977779150009156],"max":[-2.9916834831237795,1.2595027685165406,2.957777738571167]},{"bufferView":29,"type":"SCALAR","componentType":5125,"count":1026},{"bufferView":30,"type":"VEC3","componentType":5126,"count":397},{"bufferView":31,"type":"VEC2","componentType":5126,"count":397},{"bufferView":32,"type":"VEC3","componentType":5126,"count":56,"min":[-0.8568561673164368,0.02314383164048195,-0.6420067548751831],"max":[2.9023611545562746,1.3269559144973755,0.8670064210891724]},{"bufferView":33,"type":"SCALAR","componentType":5125,"count":132},{"bufferView":34,"type":"VEC3","componentType":5126,"count":56},{"bufferView":35,"type":"VEC2","componentType":5126,"count":56},{"bufferView":36,"type":"VEC3","componentType":5126,"count":156,"min":[-2.857050657272339,2.01129412651062,-7.330955982208252],"max":[-0.9020273089408875,3.073439836502075,-1.1285860538482667]},{"bufferView":37,"type":"SCALAR","componentType":5125,"count":408},{"bufferView":38,"type":"VEC3","componentType":5126,"count":156},{"bufferView":39,"type":"VEC2","componentType":5126,"count":156},{"bufferView":40,"type":"VEC3","componentType":5126,"count":728,"min":[-3.605884552001953,2.1700000762939455,0.016410935670137407],"max":[5.621937274932861,4.478388786315918,2.5374999046325685]},{"bufferView":41,"type":"SCALAR","componentType":5125,"count":1584},{"bufferView":42,"type":"VEC3","componentType":5126,"count":728},{"bufferView":43,"type":"VEC2","componentType":5126,"count":728},{"bufferView":44,"type":"VEC3","componentType":5126,"count":360,"min":[-0.8707048892974854,0.03299998492002487,-0.8444181084632874],"max":[0.857906699180603,3.152515411376953,0.5359846353530884]},{"bufferView":45,"type":"SCALAR","componentType":5125,"count":996},{"bufferView":46,"type":"VEC3","componentType":5126,"count":360},{"bufferView":47,"type":"VEC2","componentType":5126,"count":360},{"bufferView":48,"type":"VEC3","componentType":5126,"count":1628,"min":[-0.7277984619140625,-1.6615608930587769,0.3053842782974243],"max":[0.32306694984436037,0.44121426343917849,1.501859426498413]},{"bufferView":49,"type":"SCALAR","componentType":5125,"count":3342},{"bufferView":50,"type":"VEC3","componentType":5126,"count":1628},{"bufferView":51,"type":"VEC2","componentType":5126,"count":1628},{"bufferView":52,"type":"VEC3","componentType":5126,"count":88,"min":[8.201581001281739,0.2530193030834198,-5.063817024230957],"max":[9.780308723449707,1.4621832370758057,-3.206371307373047]},{"bufferView":53,"type":"SCALAR","componentType":5125,"count":228},{"bufferView":54,"type":"VEC3","componentType":5126,"count":88},{"bufferView":55,"type":"VEC2","componentType":5126,"count":88},{"bufferView":56,"type":"VEC3","componentType":5126,"count":149,"min":[-4.62647819519043,0.7748593688011169,0.8243518471717835],"max":[-3.6223065853118898,1.3251954317092896,2.557645082473755]},{"bufferView":57,"type":"SCALAR","componentType":5125,"count":408},{"bufferView":58,"type":"VEC3","componentType":5126,"count":149},{"bufferView":59,"type":"VEC2","componentType":5126,"count":149},{"bufferView":60,"type":"VEC3","componentType":5126,"count":1400,"min":[-1.2554641962051392,1.220042109489441,-1.6408953666687012],"max":[0.8426147103309631,2.308382987976074,0.4610404372215271]},{"bufferView":61,"type":"SCALAR","componentType":5125,"count":4428},{"bufferView":62,"type":"VEC3","componentType":5126,"count":1400},{"bufferView":63,"type":"VEC2","componentType":5126,"count":1400},{"bufferView":64,"type":"VEC3","componentType":5126,"count":362,"min":[-1.0851364135742188,-4.332973003387451,3.794074535369873],"max":[0.717350959777832,4.959790229797363,5.555966854095459]},{"bufferView":65,"type":"SCALAR","componentType":5125,"count":912},{"bufferView":66,"type":"VEC3","componentType":5126,"count":362},{"bufferView":67,"type":"VEC2","componentType":5126,"count":362},{"bufferView":68,"type":"VEC3","componentType":5126,"count":64,"min":[-1.8370659351348878,1.3222143650054932,3.6029763221740724],"max":[-1.055116891860962,1.4052143096923829,4.586663722991943]},{"bufferView":69,"type":"SCALAR","componentType":5125,"count":156},{"bufferView":70,"type":"VEC3","componentType":5126,"count":64},{"bufferView":71,"type":"VEC2","componentType":5126,"count":64},{"bufferView":72,"type":"VEC3","componentType":5126,"count":1228,"min":[-4.954164505004883,0.3515125811100006,-2.1913280487060549],"max":[7.230458736419678,4.235931396484375,2.9441514015197756]},{"bufferView":73,"type":"SCALAR","componentType":5125,"count":3588},{"bufferView":74,"type":"VEC3","componentType":5126,"count":1228},{"bufferView":75,"type":"VEC2","componentType":5126,"count":1228},{"bufferView":76,"type":"VEC3","componentType":5126,"count":194,"min":[-4.991639614105225,3.3723864555358888,-0.1277163028717041],"max":[-4.337649822235107,4.051231384277344,0.5128256678581238]},{"bufferView":77,"type":"SCALAR","componentType":5125,"count":492},{"bufferView":78,"type":"VEC3","componentType":5126,"count":194},{"bufferView":79,"type":"VEC2","componentType":5126,"count":194}],"materials":[{"pbrMetallicRoughness":{"metallicFactor":0.5,"roughnessFactor":0.5}},{"name":"light grey","emissiveFactor":[0.0,0.0,0.0],"alphaMode":"OPAQUE","doubleSided":false,"pbrMetallicRoughness":{"baseColorFactor":[0.9130986928939819,0.9130986928939819,0.9130986928939819,1.0],"metallicFactor":1.0,"roughnessFactor":1.0}},{"name":"Default","emissiveFactor":[0.0,0.0,0.0],"alphaMode":"OPAQUE","doubleSided":false,"pbrMetallicRoughness":{"baseColorFactor":[1.0,1.0,1.0,1.0],"metallicFactor":1.0,"roughnessFactor":1.0}}],"cameras":[{"name":"Camera","type":"perspective","perspective":{"znear":0.01,"yfov":0.8726}}]}